<svg xmlns="http://www.w3.org/2000/svg" width="116" height="117" fill="none" viewBox="0 0 116 117">
    <path fill="#1AA1E0" d="M110.947 8h-20v40h20z" />
    <path fill="#1AA1E0"
        d="M90.947 47.998h20S90.947 66 80.947 78c-10 13-20 30-20 30h-17s7-17 17-30c10-12 30-30.002 30-30.002Z" />
    <path fill="#2A476A" d="M110.946 108h-20V68.184h20z" />
    <path fill="#2A476A"
        d="M90.946 68.187h20s-20-17.92-30-29.864c-10-12.94-20-29.862-20-29.862h-17s7 16.922 17 29.862c10 11.944 30 29.864 30 29.864ZM5.001 8h20v40h-20z" />
    <path fill="#2A476A"
        d="M25.001 47.998h-20s20 18.002 30 30.002c10 13 20 30 20 30h17s-7-17-17-30c-10-12-30-30.002-30-30.002Z" />
    <path fill="#1AA1E0" d="M5.002 108h20V68.184h-20z" />
    <path fill="#1AA1E0"
        d="M25.002 68.187h-20s20-17.92 30-29.864c10-12.94 20-29.862 20-29.862h17s-7 16.922-17 29.862c-10 11.944-30 29.864-30 29.864Z" />
</svg>
  