<svg xmlns="http://www.w3.org/2000/svg" width="190" height="119" fill="none" viewBox="0 0 190 119">
  <path fill="#E7EDF3" fill-rule="evenodd" d="M156 9v4a6 6 0 1 0 0 12v4a6 6 0 1 0 0 12v4a6 6 0 1 0 0 12v4a6 6 0 1 0 0 12v5a6 6 0 1 0 0 12v4a6 6 0 1 0 0 12v4a9 9 0 0 0-9 9H9a9 9 0 0 0-9-9v-4a6 6 0 1 0 0-12v-4a6 6 0 0 0 0-12v-5a6 6 0 0 0 0-12v-4a6 6 0 0 0 0-12v-4a6 6 0 0 0 0-12v-4a6 6 0 0 0 0-12V9.945A9.001 9.001 0 0 0 7.945 0H147a9 9 0 0 0 9 9Z" clip-rule="evenodd"/>
  <path fill="#1AA1E0" d="M129.947 10h-20v40h20z"/>
  <path fill="#1AA1E0" d="M109.947 49.998h20s-20 18.002-30 30.002c-10 13-20 30-20 30h-17s7-17 17-30c10-12 30-30.002 30-30.002Z"/>
  <path fill="#2A476A" d="M129.946 110h-20V70.184h20z"/>
  <path fill="#2A476A" d="M109.946 70.187h20s-20-17.92-30-29.864c-10-12.94-20-29.862-20-29.862h-17s7 16.922 17 29.862c10 11.944 30 29.864 30 29.864ZM24.001 10h20v40h-20z"/>
  <path fill="#2A476A" d="M44.001 49.998h-20s20 18.002 30 30.002c10 13 20 30 20 30h17s-7-17-17-30c-10-12-30-30.002-30-30.002Z"/>
  <path fill="#1AA1E0" d="M24.002 110h20V70.184h-20z"/>
  <path fill="#1AA1E0" d="M44.002 70.187h-20s20-17.92 30-29.864c10-12.94 20-29.862 20-29.862h17s-7 16.922-17 29.862c-10 11.944-30 29.864-30 29.864Z"/>
  <path fill="#E7EDF3" fill-rule="evenodd" d="M190 0h-25a9 9 0 0 1-9 9v4a6 6 0 1 1 0 12v4a6 6 0 1 1 0 12v4a6 6 0 1 1 0 12v4a6 6 0 1 1 0 12v5a6 6 0 1 1 0 12v4a6 6 0 1 1 0 12v4a9 9 0 0 1 9 9h25V0Z" clip-rule="evenodd"/>
</svg>
